<?xml version="1.0" encoding="UTF-8" standalone="no"?>
<!-- Created with Inkscape (http://www.inkscape.org/) -->

<svg
   xmlns:dc="http://purl.org/dc/elements/1.1/"
   xmlns:cc="http://creativecommons.org/ns#"
   xmlns:rdf="http://www.w3.org/1999/02/22-rdf-syntax-ns#"
   xmlns:svg="http://www.w3.org/2000/svg"
   xmlns="http://www.w3.org/2000/svg"
   xmlns:sodipodi="http://sodipodi.sourceforge.net/DTD/sodipodi-0.dtd"
   xmlns:inkscape="http://www.inkscape.org/namespaces/inkscape"
   id="svg2"
   version="1.1"
   inkscape:version="0.92.2 (5c3e80d, 2017-08-06)"
   xml:space="preserve"
   viewBox="0 0 100 130"
   sodipodi:docname="Boostrap_logo.svg"
   width="100"
   height="130"><metadata
     id="metadata8"><rdf:RDF><cc:Work
         rdf:about=""><dc:format>image/svg+xml</dc:format><dc:type
           rdf:resource="http://purl.org/dc/dcmitype/StillImage" /><dc:title></dc:title></cc:Work></rdf:RDF></metadata><defs
     id="defs6" /><sodipodi:namedview
     pagecolor="#ffffff"
     bordercolor="#666666"
     borderopacity="1"
     objecttolerance="10"
     gridtolerance="10"
     guidetolerance="10"
     inkscape:pageopacity="0"
     inkscape:pageshadow="2"
     inkscape:window-width="1920"
     inkscape:window-height="1017"
     id="namedview4"
     showgrid="false"
     fit-margin-top="0"
     fit-margin-left="0"
     fit-margin-right="0"
     fit-margin-bottom="0"
     inkscape:zoom="1.6872494"
     inkscape:cx="117.56333"
     inkscape:cy="108.1203"
     inkscape:window-x="1912"
     inkscape:window-y="-8"
     inkscape:window-maximized="1"
     inkscape:current-layer="g10" /><g
     id="g10"
     inkscape:groupmode="layer"
     inkscape:label="ink_ext_XXXXXX"
     transform="matrix(1.25,0,0,-1.25,0,130)"><path
       inkscape:connector-curvature="0"
       id="path14"
       style="fill:#4d3d86;fill-opacity:1;fill-rule:nonzero;stroke:none;stroke-width:0.03417308"
       d="m 79.633681,37.829317 c 0,-7.169141 -5.865466,-13.034641 -13.034638,-13.034641 H 14.461588 c -7.1688642,0 -13.0343652,5.8655 -13.0343652,13.034641 v 52.13753 c 0,7.168827 5.865501,13.034283 13.0343652,13.034283 h 52.137455 c 7.169172,0 13.034638,-5.865456 13.034638,-13.034283 v -52.13753" /><path
       inkscape:connector-curvature="0"
       id="path16"
       style="fill:#ffffff;fill-opacity:1;fill-rule:nonzero;stroke:none;stroke-width:0.03417308"
       d="m 30.66523,46.902261 h 14.120454 c 2.427997,0 4.319136,0.626055 5.648468,1.89114 1.341635,1.252509 2.018946,3.041404 2.018946,5.341668 0,2.261848 -0.664667,3.986899 -2.018946,5.213718 -1.354621,1.226807 -3.220471,1.814584 -5.648468,1.814584 H 30.66523 Z m 0,19.998775 h 13.034435 c 1.916767,0 3.514016,0.536522 4.792089,1.635518 1.277731,1.099009 1.916769,2.657983 1.916769,4.702899 0,2.299852 -0.575133,3.923069 -1.725399,4.855663 -1.149924,0.932919 -2.811079,1.405873 -4.983459,1.405873 H 30.66523 Z m -7.986896,19.104459 h 22.171253 c 4.089151,0 7.373525,-0.932931 9.839796,-2.81142 2.466273,-1.87849 3.70573,-4.702562 3.70573,-8.498157 0,-2.299851 -0.562147,-4.267873 -1.686784,-5.903741 -1.124636,-1.635531 -2.734529,-2.913605 -4.830364,-3.807909 v -0.127811 c 2.811418,-0.600765 4.945528,-1.929756 6.389341,-3.986974 1.444153,-2.070206 2.172382,-4.651607 2.172382,-7.769617 0,-1.788894 -0.319518,-3.463103 -0.958212,-5.009438 -0.639038,-1.558875 -1.635866,-2.90058 -3.003131,-4.025215 -1.367265,-1.124636 -3.105308,-2.018877 -5.239417,-2.683648 -2.134108,-0.664245 -4.664283,-0.99675 -7.603169,-0.99675 H 22.678334 v 45.62068" /><path
       inkscape:connector-curvature="0"
       id="path18"
       style="fill:#4d3d86;fill-opacity:1;fill-rule:nonzero;stroke:none;stroke-width:0.01245011"
       d="m 3.3932425,7.4685746 h 3.328287 c 0.5713346,0 0.972604,0.02129 1.2036776,0.06391 0.4072429,0.07296 0.7477509,0.194431 1.0214089,0.36465 0.273527,0.170168 0.498253,0.417965 0.67467,0.743173 0.176295,0.325307 0.264439,0.700653 0.264439,1.126198 0,0.4983934 -0.127612,0.9316554 -0.382962,1.2995594 C 9.247408,11.433713 8.893328,11.692057 8.44039,11.841082 7.9874578,11.98986 7.3355695,12.064436 6.4844779,12.064436 H 3.3932425 Z m 0,6.1734144 h 2.8906638 c 0.7842358,0 1.3463559,0.05155 1.6869906,0.155004 0.4498221,0.13359 0.7888411,0.355701 1.0166781,0.665707 0.228084,0.310007 0.342003,0.698952 0.342003,1.167198 0,0.443601 -0.106446,0.834409 -0.319221,1.171807 C 8.79746,17.139104 8.493679,17.36993 8.0985134,17.494679 7.7032219,17.61918 7.0254367,17.681552 6.0650361,17.681552 H 3.3932425 Z M 1.6242038,5.8910596 V 19.259108 h 5.0152775 c 1.0212828,0 1.8403777,-0.135332 2.4575287,-0.405627 0.617029,-0.270664 1.100216,-0.687121 1.449943,-1.249367 0.349471,-0.562373 0.524272,-1.150516 0.524272,-1.76443 0,-0.571586 -0.155003,-1.109556 -0.46501,-1.614031 -0.310133,-0.504731 -0.778258,-0.911973 -1.404375,-1.22198 0.808386,-0.237052 1.430146,-0.641432 1.86478,-1.212766 0.434635,-0.571461 0.65201,-1.246257 0.65201,-2.0244034 0,-0.626103 -0.132095,-1.208147 -0.39666,-1.746225 C 11.057654,7.4822956 10.730717,7.0673596 10.341772,6.7756016 9.952706,6.4838076 9.464788,6.2633036 8.87814,6.1145396 8.291491,5.9655226 7.572621,5.8910596 6.7215295,5.8910596 H 1.6242038" /><path
       inkscape:connector-curvature="0"
       id="path20"
       style="fill:#4d3d86;fill-opacity:1;fill-rule:nonzero;stroke:none;stroke-width:0.01245011"
       d="m 15.019656,10.733144 c 0,-1.2401534 0.270417,-2.1688094 0.811497,-2.7858114 0.541085,-0.617065 1.221981,-0.925541 2.042692,-0.925541 0.814612,0 1.492271,0.309984 2.033477,0.93011 0.540959,0.620027 0.811497,1.565253 0.811497,2.8358994 0,1.197578 -0.272033,2.104816 -0.816106,2.721967 -0.544191,0.617029 -1.220482,0.925541 -2.028868,0.925541 -0.820711,0 -1.501607,-0.307018 -2.042692,-0.920932 -0.54108,-0.614166 -0.811497,-1.541075 -0.811497,-2.781233 z m -1.68699,0 c 0,1.793189 0.498379,3.12162 1.495507,3.984911 0.832789,0.717123 1.847846,1.075935 3.045672,1.075935 1.33129,0 2.419428,-0.43625 3.26442,-1.308503 0.844866,-0.872384 1.267545,-2.077677 1.267545,-3.615638 0,-1.2461354 -0.186874,-2.2264324 -0.560878,-2.9408554 -0.373752,-0.714225 -0.917947,-1.26889 -1.632087,-1.664083 -0.714508,-0.395156 -1.494134,-0.592748 -2.339,-0.592748 -1.355692,0 -2.451551,0.434643 -3.287454,1.30406 -0.835899,0.869269 -1.253725,2.121477 -1.253725,3.7569214" /><path
       inkscape:connector-curvature="0"
       id="path22"
       style="fill:#4d3d86;fill-opacity:1;fill-rule:nonzero;stroke:none;stroke-width:0.01245011"
       d="m 25.405913,10.733144 c 0,-1.2401534 0.270417,-2.1688094 0.811501,-2.7858114 0.541081,-0.617065 1.221976,-0.925541 2.042566,-0.925541 0.814612,0 1.492271,0.309984 2.033477,0.93011 0.541081,0.620027 0.811623,1.565253 0.811623,2.8358994 0,1.197578 -0.272158,2.104816 -0.816106,2.721967 -0.544195,0.617029 -1.220608,0.925541 -2.028994,0.925541 -0.82059,0 -1.501485,-0.307018 -2.042566,-0.920932 -0.541084,-0.614166 -0.811501,-1.541075 -0.811501,-2.781233 z m -1.686991,0 c 0,1.793189 0.49838,3.12162 1.495508,3.984911 0.832789,0.717123 1.847846,1.075935 3.04555,1.075935 1.33129,0 2.419554,-0.43625 3.264542,-1.308503 0.844866,-0.872384 1.267423,-2.077677 1.267423,-3.615638 0,-1.2461354 -0.186874,-2.2264324 -0.560878,-2.9408554 -0.373752,-0.714225 -0.917947,-1.26889 -1.632086,-1.664083 -0.714387,-0.395156 -1.494139,-0.592748 -2.339001,-0.592748 -1.35557,0 -2.451429,0.434643 -3.287328,1.30406 -0.835904,0.869269 -1.25373,2.121477 -1.25373,3.7569214" /><path
       inkscape:connector-curvature="0"
       id="path24"
       style="fill:#4d3d86;fill-opacity:1;fill-rule:nonzero;stroke:none;stroke-width:0.01245011"
       d="m 38.299751,7.3591536 0.237052,-1.449804 c -0.462026,-0.09721 -0.875368,-0.145906 -1.240158,-0.145906 -0.595858,0 -1.057759,0.09436 -1.386069,0.28262 -0.32831,0.188359 -0.559383,0.436137 -0.692973,0.743259 -0.133716,0.306869 -0.200698,0.95282 -0.200698,1.9376 v 5.5715604 h -1.203677 v 1.276637 h 1.203677 v 2.398267 l 1.632335,0.984803 v -3.38307 h 1.650511 V 14.298483 H 36.64924 V 8.6357726 c 0,-0.468238 0.02876,-0.769129 0.08665,-0.902719 0.05765,-0.133752 0.151892,-0.240301 0.282619,-0.319086 0.130601,-0.07908 0.317601,-0.118672 0.560752,-0.118672 0.182395,0 0.422557,0.02129 0.720486,0.06386" /><path
       inkscape:connector-curvature="0"
       id="path26"
       style="fill:#4d3d86;fill-opacity:1;fill-rule:nonzero;stroke:none;stroke-width:0.01245011"
       d="m 39.248079,8.7817276 1.623119,0.255323 c 0.09114,-0.650614 0.344871,-1.149007 0.76145,-1.495466 0.416331,-0.346514 0.998501,-0.519793 1.746252,-0.519793 0.753608,0 1.312991,0.153486 1.677781,0.460504 0.364785,0.306869 0.54718,0.667053 0.54718,1.080531 0,0.370776 -0.161103,0.662485 -0.483313,0.875408 -0.224975,0.145888 -0.784232,0.331384 -1.677903,0.556255 -1.203677,0.3040114 -2.038082,0.5668424 -2.50297,0.7888274 -0.465263,0.221738 -0.817849,0.528882 -1.057763,0.921063 -0.240284,0.392055 -0.360306,0.825068 -0.360306,1.299293 0,0.431645 0.09873,0.831294 0.296313,1.199194 0.197583,0.367652 0.466505,0.67318 0.807018,0.916327 0.25535,0.188372 0.603331,0.347981 1.044191,0.478834 0.440607,0.130601 0.913216,0.195962 1.417942,0.195962 0.759829,0 1.427158,-0.109435 2.001481,-0.32831 0.574571,-0.218744 0.998501,-0.515057 1.272154,-0.888935 0.273527,-0.373878 0.4619,-0.874121 0.565357,-1.500117 l -1.604943,-0.21887 c -0.07296,0.498379 -0.284236,0.887567 -0.633837,1.167198 -0.349471,0.279505 -0.843367,0.419442 -1.481688,0.419442 -0.753851,0 -1.291821,-0.124497 -1.614031,-0.373752 -0.322332,-0.249499 -0.483313,-0.541207 -0.483313,-0.87549 0,-0.212897 0.06686,-0.40438 0.200698,-0.57445 0.133585,-0.176416 0.343245,-0.322331 0.629101,-0.437744 0.164218,-0.06076 0.647405,-0.200572 1.44994,-0.419447 1.161098,-0.310006 1.971105,-0.563866 2.430015,-0.761323 0.459037,-0.197709 0.819217,-0.484934 1.080671,-0.861796 0.261328,-0.3770024 0.39205,-0.8450014 0.39205,-1.4042364 0,-0.547171 -0.159608,-1.062395 -0.478582,-1.545572 -0.319343,-0.483462 -0.779748,-0.8572 -1.381589,-1.121765 -0.601836,-0.26433 -1.282732,-0.39666 -2.042565,-0.39666 -1.258456,0 -2.217488,0.261364 -2.877097,0.784267 -0.659482,0.522755 -1.080418,1.297925 -1.262813,2.325298" /><path
       inkscape:connector-curvature="0"
       id="path28"
       style="fill:#4d3d86;fill-opacity:1;fill-rule:nonzero;stroke:none;stroke-width:0.01245011"
       d="m 52.8258,7.3591536 0.237173,-1.449804 c -0.462021,-0.09721 -0.875489,-0.145906 -1.240157,-0.145906 -0.595859,0 -1.057758,0.09436 -1.386068,0.28262 -0.32831,0.188359 -0.559383,0.436137 -0.692973,0.743259 -0.133842,0.306869 -0.200698,0.95282 -0.200698,1.9376 V 14.298483 H 48.3394 v 1.276637 h 1.203677 v 2.398267 l 1.632334,0.984803 V 15.57512 H 52.8258 V 14.298483 H 51.175411 V 8.6357726 c 0,-0.468238 0.02876,-0.769129 0.08665,-0.902719 0.05765,-0.133752 0.151893,-0.240301 0.282494,-0.319086 0.130727,-0.07908 0.317727,-0.118672 0.560878,-0.118672 0.182395,0 0.422557,0.02129 0.720364,0.06386" /><path
       inkscape:connector-curvature="0"
       id="path30"
       style="fill:#4d3d86;fill-opacity:1;fill-rule:nonzero;stroke:none;stroke-width:0.01245011"
       d="M 54.412566,5.8910596 V 15.57512 h 1.477204 v -1.467995 c 0.376867,0.686874 0.724974,1.139811 1.04407,1.358555 0.319221,0.218875 0.670191,0.32831 1.053153,0.32831 0.553158,0 1.11553,-0.176417 1.686991,-0.528877 l -0.565357,-1.522777 c -0.401143,0.237051 -0.802413,0.355575 -1.203678,0.355575 -0.358811,0 -0.680774,-0.107941 -0.966504,-0.323574 -0.285852,-0.216012 -0.489413,-0.515314 -0.611051,-0.898276 -0.182269,-0.583664 -0.273527,-1.221981 -0.273527,-1.914954 V 5.8910596 h -1.641301" /><path
       inkscape:connector-curvature="0"
       id="path32"
       style="fill:#4d3d86;fill-opacity:1;fill-rule:nonzero;stroke:none;stroke-width:0.01245011"
       d="M 66.832178,10.751321 C 66.236315,10.50817 65.34277,10.301377 64.151296,10.131308 63.4765,10.034088 62.99916,9.9246586 62.719655,9.8029706 62.440029,9.6813456 62.224143,9.5035966 62.07225,9.2696196 c -0.152014,-0.234171 -0.227963,-0.494018 -0.227963,-0.779735 0,-0.43761 0.165587,-0.802413 0.497011,-1.094256 0.331173,-0.291794 0.816106,-0.437596 1.454423,-0.437596 0.632217,0 1.194463,0.138159 1.686991,0.41494 0.492401,0.276426 0.85395,0.654887 1.085028,1.135188 0.17629,0.370691 0.264438,0.917857 0.264438,1.6413234 z m 0.136827,-3.6656724 c -0.607941,-0.516682 -1.193095,-0.88148 -1.755467,-1.094256 -0.562247,-0.21277 -1.165704,-0.31923 -1.809998,-0.31923 -1.063862,0 -1.881584,0.259946 -2.452919,0.779635 -0.571461,0.519892 -0.857191,1.183984 -0.857191,1.992519 0,0.474211 0.10794,0.907337 0.3237,1.299428 0.215764,0.3921814 0.498506,0.7066584 0.848229,0.9438314 0.349349,0.237051 0.74302,0.41621 1.180769,0.53797 0.322206,0.08504 0.808387,0.167206 1.459028,0.24614 1.32519,0.158118 2.300905,0.346612 2.927022,0.565361 0.006,0.224848 0.0092,0.367774 0.0092,0.428656 0,0.668697 -0.155003,1.139806 -0.465136,1.413338 -0.419446,0.370763 -1.042696,0.556268 -1.869264,0.556268 -0.772154,0 -1.34212,-0.135332 -1.709773,-0.405748 -0.3679,-0.270664 -0.63981,-0.749246 -0.816106,-1.436246 l -1.604942,0.218875 c 0.145915,0.686995 0.386077,1.241526 0.720364,1.664208 0.334283,0.422431 0.817475,0.747752 1.449939,0.975715 0.632217,0.227959 1.364659,0.341877 2.19757,0.341877 0.826689,0 1.498496,-0.09723 2.015174,-0.29183 0.516682,-0.194594 0.896786,-0.439239 1.139932,-0.733932 0.24303,-0.294945 0.413347,-0.667328 0.510583,-1.11715 0.05478,-0.279631 0.08204,-0.784232 0.08204,-1.513685 V 9.9489256 c 0,-1.526014 0.03498,-2.491046 0.104956,-2.895286 0.06985,-0.404232 0.208166,-0.791839 0.414837,-1.16258 h -1.714256 c -0.170192,0.340486 -0.279631,0.73865 -0.32831,1.194589" /><path
       inkscape:connector-curvature="0"
       id="path34"
       style="fill:#4d3d86;fill-opacity:1;fill-rule:nonzero;stroke:none;stroke-width:0.01245011"
       d="m 72.522378,10.678366 c 0,-1.2461224 0.252113,-2.1671804 0.756844,-2.7629444 0.504479,-0.59585 1.11553,-0.89363 1.83278,-0.89363 0.729579,0 1.354198,0.308476 1.873869,0.925541 0.519914,0.617002 0.779748,1.573036 0.779748,2.8678594 0,1.234054 -0.253856,2.157979 -0.76145,2.772141 -0.507715,0.613918 -1.114035,0.920936 -1.819207,0.920936 -0.699077,0 -1.317722,-0.326815 -1.855566,-0.980198 C 72.7913,12.87444 72.522378,11.924497 72.522378,10.678366 Z M 71.035959,2.1798156 V 15.57512 h 1.495507 v -1.258334 c 0.352465,0.492401 0.750741,0.861796 1.19459,1.108062 0.443596,0.246135 0.981566,0.369142 1.613909,0.369142 0.826685,0 1.556138,-0.212897 2.188607,-0.638316 0.632212,-0.425546 1.109304,-1.025762 1.431636,-1.80091 0.322084,-0.775016 0.483187,-1.624613 0.483187,-2.54866 0,-0.9909164 -0.177785,-1.8829584 -0.53336,-2.6764034 -0.355701,-0.793208 -0.872505,-1.401274 -1.550165,-1.82379 -0.677906,-0.422337 -1.390677,-0.633748 -2.138433,-0.633748 -0.547058,0 -1.038087,0.115562 -1.472599,0.346608 -0.434756,0.230961 -0.791952,0.522805 -1.071457,0.875404 v -4.714359 h -1.641422" /></g></svg>