<?xml version="1.0" encoding="UTF-8" standalone="no"?>
<svg
   xmlns:dc="http://purl.org/dc/elements/1.1/"
   xmlns:cc="http://creativecommons.org/ns#"
   xmlns:rdf="http://www.w3.org/1999/02/22-rdf-syntax-ns#"
   xmlns:svg="http://www.w3.org/2000/svg"
   xmlns="http://www.w3.org/2000/svg"
   xmlns:sodipodi="http://sodipodi.sourceforge.net/DTD/sodipodi-0.dtd"
   xmlns:inkscape="http://www.inkscape.org/namespaces/inkscape"
   viewBox="0 0 100 140"
   version="1.1"
   id="svg1522"
   sodipodi:docname="HTML5_Logo.svg"
   width="100"
   height="140"
   inkscape:version="0.92.2 (5c3e80d, 2017-08-06)">
  <metadata
     id="metadata1528">
    <rdf:RDF>
      <cc:Work
         rdf:about="">
        <dc:format>image/svg+xml</dc:format>
        <dc:type
           rdf:resource="http://purl.org/dc/dcmitype/StillImage" />
        <dc:title>HTML5 Logo</dc:title>
      </cc:Work>
    </rdf:RDF>
  </metadata>
  <defs
     id="defs1526" />
  <sodipodi:namedview
     pagecolor="#ffffff"
     bordercolor="#666666"
     borderopacity="1"
     objecttolerance="10"
     gridtolerance="10"
     guidetolerance="10"
     inkscape:pageopacity="0"
     inkscape:pageshadow="2"
     inkscape:window-width="1920"
     inkscape:window-height="1017"
     id="namedview1524"
     showgrid="false"
     inkscape:zoom="1.3037281"
     inkscape:cx="186.77722"
     inkscape:cy="-6.7110234"
     inkscape:window-x="1912"
     inkscape:window-y="-8"
     inkscape:window-maximized="1"
     inkscape:current-layer="svg1522" />
  <title
     id="title1500">HTML5 Logo</title>
  <g
     id="g2083"
     transform="matrix(0.25778143,0,0,0.25778143,-15.646363,106.73988)">
    <polygon
       transform="translate(0,-402)"
       style="fill:#e44d26"
       id="polygon1502"
       points="437.367,100.62 404.321,470.819 255.778,512 107.644,470.877 74.633,100.62 " />
    <polygon
       transform="translate(0,-402)"
       style="fill:#f16529"
       id="polygon1504"
       points="376.03,447.246 404.27,130.894 256,130.894 256,480.523 " />
    <polygon
       transform="translate(0,-402)"
       style="fill:#ebebeb"
       id="polygon1506"
       points="143.219,188.488 154.38,313.627 256,313.627 256,268.217 195.91,268.217 191.76,221.716 256,221.716 256,176.305 255.843,176.305 142.132,176.305 " />
    <polygon
       transform="translate(0,-402)"
       style="fill:#ebebeb"
       id="polygon1508"
       points="256,433.399 256,386.153 255.801,386.206 205.227,372.55 201.994,336.333 177.419,336.333 156.409,336.333 162.771,407.634 255.791,433.457 " />
    <path
       inkscape:connector-curvature="0"
       id="path1510"
       d="m 108.382,-402 h 23.077 v 22.8 h 21.11 V -402 h 23.078 v 69.044 H 152.57 v -23.12 h -21.11 v 23.12 H 108.383 V -402 Z" />
    <path
       inkscape:connector-curvature="0"
       id="path1512"
       d="M 205.994,-379.104 H 185.678 V -402 h 63.72 v 22.896 h -20.325 v 46.148 h -23.078 v -46.148 z" />
    <path
       inkscape:connector-curvature="0"
       id="path1514"
       d="m 259.511,-402 h 24.063 l 14.802,24.26 14.787,-24.26 h 24.072 v 69.044 h -22.982 v -34.222 l -15.877,24.549 h -0.397 l -15.888,-24.549 v 34.222 h -22.58 z" />
    <path
       inkscape:connector-curvature="0"
       id="path1516"
       d="m 348.72,-402 h 23.084 v 46.222 h 32.453 v 22.822 H 348.72 Z" />
    <polygon
       transform="translate(0,-402)"
       style="fill:#ffffff"
       id="polygon1518"
       points="348.937,407.634 349.62,399.962 360.291,280.411 361.399,268.217 349.162,268.217 255.843,268.217 255.843,313.627 311.761,313.627 306.49,372.521 255.843,386.191 255.843,433.435 " />
    <polygon
       transform="translate(0,-402)"
       style="fill:#ffffff"
       id="polygon1520"
       points="368.511,188.488 369.597,176.305 255.843,176.305 255.843,204.509 255.843,221.605 255.843,221.716 365.385,221.716 365.531,221.716 366.442,211.509 " />
  </g>
</svg>
