<?xml version="1.0" encoding="UTF-8" standalone="no"?>
<!-- Created with Inkscape (http://www.inkscape.org/) -->

<svg
   xmlns:dc="http://purl.org/dc/elements/1.1/"
   xmlns:cc="http://creativecommons.org/ns#"
   xmlns:rdf="http://www.w3.org/1999/02/22-rdf-syntax-ns#"
   xmlns:svg="http://www.w3.org/2000/svg"
   xmlns="http://www.w3.org/2000/svg"
   xmlns:sodipodi="http://sodipodi.sourceforge.net/DTD/sodipodi-0.dtd"
   xmlns:inkscape="http://www.inkscape.org/namespaces/inkscape"
   width="100"
   height="135"
   id="svg2"
   version="1.1"
   inkscape:version="0.92.2 (5c3e80d, 2017-08-06)"
   sodipodi:docname="javascript_logo.svg">
  <defs
     id="defs4" />
  <sodipodi:namedview
     id="base"
     pagecolor="#ffffff"
     bordercolor="#666666"
     borderopacity="1.0"
     inkscape:pageopacity="0.0"
     inkscape:pageshadow="2"
     inkscape:zoom="4.4120975"
     inkscape:cx="-31.673521"
     inkscape:cy="55.409717"
     inkscape:document-units="px"
     inkscape:current-layer="layer1"
     showgrid="false"
     inkscape:window-width="1920"
     inkscape:window-height="1017"
     inkscape:window-x="-8"
     inkscape:window-y="-8"
     inkscape:window-maximized="1"
     fit-margin-top="0"
     fit-margin-left="0"
     fit-margin-right="0"
     fit-margin-bottom="0" />
  <metadata
     id="metadata7">
    <rdf:RDF>
      <cc:Work
         rdf:about="">
        <dc:format>image/svg+xml</dc:format>
        <dc:type
           rdf:resource="http://purl.org/dc/dcmitype/StillImage" />
        <dc:title></dc:title>
      </cc:Work>
    </rdf:RDF>
  </metadata>
  <g
     inkscape:label="Layer 1"
     inkscape:groupmode="layer"
     id="layer1"
     transform="translate(-326.59295,-191.16116)">
    <g
       id="g3652"
       transform="matrix(0.84688915,0,0,0.84688915,-32.981812,168.84536)">
      <path
         id="path3654"
         d="m 512.87,26.15 c 1.4,-0.02 2.81,-0.04 4.22,-0.05 0.02,0.78 0.05,2.33 0.07,3.11 -1.44,0 -2.88,-0.01 -4.31,-0.01 0,-0.76 0.02,-2.28 0.02,-3.05 z"
         inkscape:connector-curvature="0"
         style="opacity:0.85;fill:#101010" />
    </g>
    <path
       style="fill:#131313;stroke-width:0.67751133"
       inkscape:connector-curvature="0"
       d="m 329.01249,191.53352 c 2.1765,0.017 4.36147,0.0255 6.55492,0.0339 -0.18632,3.89567 0.57589,7.94381 -0.52507,11.73788 -1.42278,2.72698 -4.96279,2.19343 -7.5119,2.24426 -0.10172,-0.86383 -0.20327,-1.72766 -0.29643,-2.59148 1.46512,-0.11864 3.05727,0.16937 4.40383,-0.58436 0.87229,-2.70158 0.48272,-5.58948 0.26253,-8.36727 -0.74527,0.017 -2.22732,0.0339 -2.97258,0.0422 0.0255,-0.62671 0.0593,-1.88856 0.0846,-2.51526 z"
       id="path3664" />
    <path
       style="fill:#131313;stroke-width:0.67751133"
       inkscape:connector-curvature="0"
       d="m 372.6188,192.60059 c 2.56607,-1.98172 5.9367,-1.1687 8.79071,-0.39804 -0.008,0.75374 -0.017,2.26121 -0.017,3.01493 -2.21037,-0.88923 -6.41096,-2.82861 -6.9699,0.82995 2.09182,0.63516 4.30219,1.0078 6.19923,2.14263 2.01558,1.64297 1.44817,5.37776 -0.8723,6.50411 -2.6423,1.56674 -5.77578,0.71138 -8.56205,0.14398 -0.16091,-1.16024 -0.3218,-2.31201 -0.46578,-3.47225 2.34588,1.03321 7.09693,3.48071 7.79984,-0.47426 -2.35435,-0.88922 -5.28458,-1.01628 -6.9953,-3.0488 -0.75373,-1.72766 -0.62671,-4.13282 1.09248,-5.24225 z"
       id="path3666" />
    <path
       style="fill:#131313;stroke-width:0.67751133"
       inkscape:connector-curvature="0"
       d="m 419.4433,192.01624 c 0.99088,0 1.99019,0 2.998,0 0.0255,0.95699 0.0593,1.91397 0.10161,2.87095 0.7622,0.008 2.29508,0.0253 3.06575,0.0338 0.017,0.58435 0.0422,1.74461 0.0593,2.3205 -0.77914,-0.008 -2.33742,-0.0255 -3.11656,-0.0424 0.0422,1.93936 -0.45731,4.05659 0.51659,5.84353 0.72834,0.0762 2.18498,0.2202 2.91331,0.29641 -0.0762,3.56539 -4.14129,1.94784 -6.29239,1.38889 -0.19478,-2.17651 -0.28794,-4.35301 -0.28794,-6.53797 -0.55048,-0.77067 -1.10096,-1.54981 -1.64295,-2.32049 0.41496,-0.3811 1.24491,-1.1433 1.6599,-1.5244 0.008,-0.58435 0.017,-1.75306 0.0255,-2.32895 z"
       id="path3668" />
    <path
       style="fill:#131313;stroke-width:0.67751133"
       inkscape:connector-curvature="0"
       d="m 338.20971,194.99729 c 2.76084,-0.14397 6.62266,-1.16871 8.35877,1.6853 0.61824,2.82862 0.22868,5.76733 0.32184,8.64675 -1.23647,-0.1101 -2.47293,-0.22866 -3.70093,-0.33876 -1.40582,0.11863 -3.05726,1.16023 -4.35299,0.22867 -2.15111,-1.0332 -2.18498,-4.8442 0.0762,-5.76733 1.64297,-0.67749 3.43837,-0.79607 5.15756,-1.20258 -1.6345,-1.69377 -3.95498,-1.05013 -6.01292,-0.82995 0.0422,-0.60975 0.11863,-1.8208 0.15245,-2.4221 m 2.69311,5.81813 c -0.0932,0.82148 -0.17785,1.64296 -0.25408,2.4729 0.94004,-0.0508 1.8801,-0.0932 2.82862,-0.14395 0.0678,-0.88923 0.14395,-1.77847 0.22018,-2.66771 -0.94004,0.11011 -1.87162,0.22866 -2.79472,0.33876 z"
       id="path3670" />
    <path
       style="fill:#131313;stroke-width:0.67751133"
       inkscape:connector-curvature="0"
       d="m 348.15218,194.70089 c 0.81301,0.1609 2.44751,0.48272 3.26053,0.64362 0.85534,1.96479 1.43969,4.03119 2.26967,6.01291 0.69443,-2.11721 1.33807,-4.25984 1.96476,-6.40247 0.81302,-0.017 2.44752,-0.0422 3.26052,-0.0593 -1.15175,3.63317 -2.43903,7.22397 -3.87875,10.76396 -1.11788,-0.14397 -2.21885,-0.3811 -3.28593,-0.69444 -1.54134,-3.28594 -2.5576,-6.79205 -3.5908,-10.26429 z"
       id="path3672" />
    <path
       style="fill:#131313;stroke-width:0.67751133"
       inkscape:connector-curvature="0"
       d="m 359.95782,197.40247 c 0.23712,-0.80456 0.50812,-1.60911 0.80454,-2.39671 2.62535,-0.3811 6.18227,-0.94005 7.98616,1.51594 0.61823,2.93022 0.23713,5.96208 0.2964,8.93468 -1.24492,-0.16938 -2.48137,-0.33875 -3.71782,-0.50815 -2.21886,1.17718 -5.91979,0.75374 -5.86896,-2.37128 -0.42345,-3.70936 4.20904,-3.76019 6.72431,-4.25138 -1.51593,-2.03255 -4.1413,-0.95699 -6.22463,-0.9231 m 3.06573,3.48917 c -0.0932,0.76219 -0.17786,1.53287 -0.26254,2.29508 0.93159,0.0253 1.86316,0.0508 2.80321,0.0677 0.0847,-0.94005 0.16937,-1.87163 0.25406,-2.81167 -0.93159,0.14396 -1.86315,0.29641 -2.79473,0.44886 z"
       id="path3674" />
    <path
       style="fill:#131313;stroke-width:0.67751133"
       inkscape:connector-curvature="0"
       d="m 382.6121,200.17179 c -0.26253,-4.60709 5.59794,-7.02072 9.10405,-4.56474 0.0846,0.65211 0.2456,1.96478 0.32182,2.61688 -1.60908,-0.50812 -3.26052,-1.65989 -4.98818,-0.88075 -1.82927,1.74458 -1.44818,6.17382 1.65143,5.91127 0.85535,-0.271 2.5576,-0.81299 3.41296,-1.08401 -0.15243,0.72832 -0.44884,2.18498 -0.59281,2.90482 -3.66702,1.72767 -9.19722,-0.31334 -8.90927,-4.90347 z"
       id="path3676" />
    <path
       style="fill:#131313;stroke-width:0.67751133"
       inkscape:connector-curvature="0"
       d="m 393.44382,194.667 c 1.27032,0.33876 2.56606,0.67751 3.84487,1.04167 0.95698,-0.34721 1.92243,-0.68597 2.89635,-1.03319 0.0422,0.81301 0.14397,2.43903 0.1948,3.25205 -1.21953,0.0593 -2.43904,0.11862 -3.64165,0.17785 -0.0846,2.43056 -0.11009,4.85267 -0.12702,7.28325 -0.79607,0.008 -2.39669,0.017 -3.19276,0.0255 -0.0422,-3.58234 -0.0508,-7.16469 0.0255,-10.74702 z"
       id="path3678" />
    <path
       style="fill:#131313;stroke-width:0.67751133"
       inkscape:connector-curvature="0"
       d="m 407.21423,194.89567 c 2.33741,0.52507 4.69175,0.36417 7.02071,-0.10162 3.65009,0.75372 3.73477,5.92821 2.34588,8.63827 -1.15177,2.33742 -3.97191,2.11723 -6.14841,1.99864 0.017,1.23647 0.0339,2.46446 0.0507,3.70092 -0.813,-0.008 -2.45598,-0.0255 -3.27747,-0.0424 0,-4.72565 -0.008,-9.45975 0.008,-14.19387 m 3.30288,2.48987 c -0.0339,1.97324 -0.0508,3.95497 -0.0339,5.92822 1.05015,-0.28793 2.40518,-0.0846 3.20124,-0.99086 0.59283,-1.60908 0.12704,-3.34521 0.008,-5.00512 -1.0586,0.017 -2.11721,0.0422 -3.17582,0.0677 z"
       id="path3680" />
    <g
       id="g3688"
       transform="matrix(0.84688915,0,0,0.84688915,-32.981812,168.84536)">
      <path
         id="path3690"
         d="m 513.23,30.79 c 0.89,0 2.67,0 3.55,0 0.06,4.13 0.06,8.25 0,12.38 -0.89,0 -2.66,0 -3.55,0 -0.07,-4.12 -0.07,-8.25 0,-12.38 z"
         inkscape:connector-curvature="0"
         style="fill:#131313" />
    </g>
    <g
       id="g3768"
       transform="matrix(1.1073389,0,0,1.1073389,-158.88024,156.86997)">
      <path
         id="path3770"
         d="m 439.03,51.2 c 9.97,-0.42 19.96,0.12 29.94,-0.05 11.01,-0.35 22.01,-0.06 33.03,-0.02 8.74,0.02 17.48,-0.04 26.22,0.03 -2.75,30.33 -5.52,60.66 -8.07,91.01 -11.71,3.33 -23.43,6.61 -35.14,9.92 -1.5,0.62 -3.04,0.04 -4.48,-0.35 -11.13,-3.2 -22.26,-6.37 -33.41,-9.45 -2.9,-30.34 -5.63,-60.71 -8.09,-91.09 m 44.78,7.91 c -0.41,14.96 -0.06,29.92 -0.18,44.88 0.11,13.68 -0.2,27.37 0.16,41.05 9.84,-2.32 19.55,-5.17 29.26,-7.98 2.44,-25.97 4.82,-51.94 6.86,-77.94 -12.03,-0.12 -24.07,0.02 -36.1,-0.01 m -12.52,58.42 c -5.78,-1.58 -11.49,-3.4 -17.35,-4.65 -0.17,3.48 -0.11,6.96 0.29,10.42 8.58,2.09 16.98,4.84 25.57,6.89 0.06,-19.81 -0.03,-39.63 0.04,-59.44 -2.8,-0.07 -5.6,-0.11 -8.4,-0.17 -0.32,15.64 -0.02,31.3 -0.15,46.95 z"
         inkscape:connector-curvature="0"
         style="fill:#d6ba32" />
    </g>
    <g
       id="g3796"
       transform="matrix(1.1073389,0,0,1.1073389,-158.88024,156.86997)">
      <path
         id="path3798"
         d="m 483.81,59.11 c 12.03,0.03 24.07,-0.11 36.1,0.01 -2.04,26 -4.42,51.97 -6.86,77.94 -9.71,2.81 -19.42,5.66 -29.26,7.98 -0.36,-13.68 -0.05,-27.37 -0.16,-41.05 0.12,-14.96 -0.23,-29.92 0.18,-44.88 m 3.37,11.63 c 0.04,12.88 0.05,25.77 0,38.65 5.88,-0.95 11.74,-2.04 17.6,-3.11 -0.09,3 -0.21,6 -0.34,9 -5.71,1.52 -11.41,3.09 -17.15,4.5 -0.09,3.46 -0.1,6.92 -0.07,10.39 7.23,-1.62 14.35,-3.66 21.53,-5.47 0.9,-0.42 2.63,-0.37 2.55,-1.78 0.87,-9.26 1.41,-18.56 2.25,-27.84 -5.95,0.49 -11.84,1.49 -17.79,1.9 -0.05,-5.26 -0.06,-10.52 0.02,-15.78 6.26,0 12.51,0 18.77,0.01 0.4,-3.51 0.75,-7.03 1.02,-10.55 -9.46,0.04 -18.93,-0.09 -28.39,0.08 z"
         inkscape:connector-curvature="0"
         style="fill:#ffda3e" />
    </g>
    <path
       style="fill:#ebebeb;stroke-width:0.88587105"
       inkscape:connector-curvature="0"
       d="m 362.99752,287.01551 c 0.14393,-17.32986 -0.18825,-34.67078 0.16608,-51.98958 3.10055,0.0664 6.20111,0.11076 9.30166,0.18827 -0.0775,21.93638 0.0221,43.88385 -0.0443,65.82022 -9.51203,-2.27005 -18.81367,-5.31524 -28.31465,-7.62956 -0.44294,-3.83139 -0.50937,-7.68495 -0.32113,-11.53847 6.48901,1.38417 12.81192,3.39952 19.21234,5.14912 z"
       id="path3806" />
  </g>
</svg>
