<?xml version="1.0" encoding="UTF-8" standalone="no"?>
<!-- Generator: Adobe Illustrator 15.0.2, SVG Export Plug-In . SVG Version: 6.00 Build 0)  -->

<svg
   xmlns:dc="http://purl.org/dc/elements/1.1/"
   xmlns:cc="http://creativecommons.org/ns#"
   xmlns:rdf="http://www.w3.org/1999/02/22-rdf-syntax-ns#"
   xmlns:svg="http://www.w3.org/2000/svg"
   xmlns="http://www.w3.org/2000/svg"
   xmlns:sodipodi="http://sodipodi.sourceforge.net/DTD/sodipodi-0.dtd"
   xmlns:inkscape="http://www.inkscape.org/namespaces/inkscape"
   version="1.1"
   x="0px"
   y="0px"
   width="100"
   height="135"
   viewBox="0 0 100 135"
   enable-background="new 0 0 202 223.666"
   xml:space="preserve"
   id="svg4943"
   sodipodi:docname="symfony_logo.svg"
   inkscape:version="0.92.2 (5c3e80d, 2017-08-06)"><metadata
     id="metadata4949"><rdf:RDF><cc:Work
         rdf:about=""><dc:format>image/svg+xml</dc:format><dc:type
           rdf:resource="http://purl.org/dc/dcmitype/StillImage" /><dc:title></dc:title></cc:Work></rdf:RDF></metadata><defs
     id="defs4947" /><sodipodi:namedview
     pagecolor="#ffffff"
     bordercolor="#666666"
     borderopacity="1"
     objecttolerance="10"
     gridtolerance="10"
     guidetolerance="10"
     inkscape:pageopacity="0"
     inkscape:pageshadow="2"
     inkscape:window-width="1920"
     inkscape:window-height="1017"
     id="namedview4945"
     showgrid="false"
     showborder="true"
     inkscape:pagecheckerboard="true"
     inkscape:zoom="3.8003093"
     inkscape:cx="6.8406123"
     inkscape:cy="51.572918"
     inkscape:window-x="1912"
     inkscape:window-y="-8"
     inkscape:window-maximized="1"
     inkscape:current-layer="svg4943" /><g
     id="fond"
     transform="translate(0,-88.666006)" /><g
     id="compacte"
     transform="translate(0,-88.666006)" /><g
     id="rectangle"
     transform="translate(0,-88.666006)" /><g
     id="g4920"
     transform="matrix(0.86223443,0,0,0.86223443,-36.114163,-22.080934)"><path
       d="m 155.951,84.448 c 0,30.976 -25.109,56.087 -56.084,56.087 -30.973,0 -56.081,-25.111 -56.081,-56.087 0,-30.971 25.107,-56.079 56.081,-56.079 30.975,0 56.084,25.108 56.084,56.079 z"
       id="path4916"
       inkscape:connector-curvature="0" /><path
       d="m 124.389,49.119 c -5.697,0.195 -10.67,3.34 -14.373,7.68 -4.1,4.765 -6.824,10.411 -8.791,16.18 -3.514,-2.882 -6.223,-6.611 -11.864,-8.233 -4.359,-1.253 -8.936,-0.737 -13.146,2.399 -1.992,1.489 -3.367,3.738 -4.02,5.859 -1.692,5.498 1.778,10.396 3.354,12.151 l 3.447,3.691 c 0.709,0.725 2.422,2.613 1.584,5.319 -0.9,2.947 -4.451,4.85 -8.092,3.731 -1.627,-0.499 -3.963,-1.71 -3.439,-3.413 0.215,-0.699 0.715,-1.225 0.984,-1.821 0.244,-0.521 0.363,-0.907 0.438,-1.14 0.665,-2.169 -0.245,-4.994 -2.57,-5.713 -2.171,-0.666 -4.391,-0.138 -5.252,2.655 -0.977,3.174 0.543,8.935 8.681,11.441 9.535,2.935 17.597,-2.259 18.742,-9.026 0.721,-4.239 -1.195,-7.392 -4.701,-11.441 l -2.859,-3.163 c -1.73,-1.729 -2.324,-4.677 -0.533,-6.942 1.512,-1.912 3.664,-2.726 7.191,-1.768 5.15,1.396 7.443,4.969 11.271,7.851 -1.578,5.187 -2.613,10.392 -3.547,15.059 l -0.574,3.481 c -2.736,14.352 -4.826,22.235 -10.256,26.76 -1.094,0.779 -2.658,1.943 -5.014,2.027 -1.238,0.037 -1.637,-0.814 -1.654,-1.186 -0.027,-0.865 0.703,-1.264 1.188,-1.652 0.727,-0.396 1.824,-1.053 1.748,-3.156 -0.078,-2.484 -2.137,-4.639 -5.111,-4.541 -2.229,0.075 -5.625,2.171 -5.497,6.011 0.131,3.967 3.827,6.938 9.401,6.75 2.979,-0.102 9.633,-1.312 16.188,-9.105 7.631,-8.935 9.766,-19.175 11.372,-26.671 l 1.793,-9.897 c 0.992,0.119 2.059,0.2 3.217,0.228 9.504,0.201 14.256,-4.72 14.328,-8.302 0.049,-2.167 -1.42,-4.302 -3.479,-4.251 -1.471,0.041 -3.32,1.022 -3.762,3.057 -0.436,1.995 3.023,3.798 0.32,5.553 -1.92,1.242 -5.361,2.116 -10.209,1.407 l 0.881,-4.872 c 1.799,-9.238 4.018,-20.6 12.436,-20.878 0.615,-0.029 2.857,0.026 2.91,1.512 0.014,0.493 -0.109,0.623 -0.689,1.757 -0.592,0.884 -0.814,1.64 -0.785,2.504 0.08,2.356 1.873,3.908 4.471,3.818 3.473,-0.116 4.469,-3.496 4.412,-5.233 -0.146,-4.085 -4.449,-6.665 -10.14,-6.477 z"
       id="path4918"
       inkscape:connector-curvature="0"
       style="fill:#ffffff" /></g><g
     id="g4938"
     transform="matrix(0.70875795,0,0,0.70875795,-21.796721,-3.3571339)"><g
       id="g4924"><path
         d="m 120.689,163.885 c 5.664,0 9.465,4.094 9.465,9.756 0,5.338 -3.873,9.758 -9.465,9.758 -5.627,0 -9.502,-4.42 -9.502,-9.758 0.001,-5.662 3.801,-9.756 9.502,-9.756 z m 0,16.738 c 4.018,0 5.809,-3.654 5.809,-6.982 0,-3.543 -2.154,-6.979 -5.809,-6.979 -3.689,0 -5.846,3.436 -5.846,6.979 10e-4,3.328 1.79,6.982 5.846,6.982 z"
         id="path4922"
         inkscape:connector-curvature="0" /></g><path
       d="m 110.717,165.619 v -1.297 h -4.934 v -1.771 c 0,-2.521 0.365,-4.424 3.324,-4.424 0.057,0 0.113,0.004 0.17,0.006 0.006,0 0.006,-0.008 0.014,-0.008 0.818,0.061 1.502,-0.609 1.549,-1.43 l 0.061,-1.125 c -0.695,-0.111 -1.428,-0.221 -2.303,-0.221 -5.078,0 -6.248,2.961 -6.248,7.494 v 1.479 h -4.387 v 1.447 c 0.111,0.75 0.754,1.328 1.537,1.328 0.004,0 0.008,0.004 0.012,0.004 h 2.838 v 15.859 h 1.893 c 0.004,0 0.002,-0.002 0.006,-0.002 0.785,0 1.43,-0.588 1.535,-1.346 V 167.1 h 3.436 c 0.811,-0.026 1.46,-0.672 1.497,-1.481 z"
       id="path4926"
       inkscape:connector-curvature="0" /><path
       d="m 64.961,164.322 c -0.007,0 -0.01,0.004 -0.018,0.004 -0.725,0 -1.426,0.498 -1.731,1.17 l -4.728,14.25 h -0.073 l -4.623,-14.242 c -0.302,-0.676 -1.007,-1.178 -1.735,-1.178 -0.007,0 -0.01,-0.004 -0.018,-0.004 H 49.64 l 6.322,17.396 c 0.221,0.621 0.659,1.572 0.659,1.973 0,0.365 -1.024,4.605 -4.095,4.605 -0.076,0 -0.152,-0.008 -0.228,-0.014 -0.783,-0.043 -1.375,0.504 -1.507,1.346 l -0.093,1.189 c 0.621,0.109 1.244,0.256 2.341,0.256 4.53,0 5.883,-4.131 7.162,-7.711 l 6.871,-19.041 h -2.111 z"
       id="path4928"
       inkscape:connector-curvature="0" /><path
       d="m 43.123,168.109 c -2.838,-1.451 -5.941,-2.438 -5.996,-5.357 0.009,-3.104 2.859,-3.918 5.056,-3.914 0.009,-0.002 0.019,-0.002 0.023,-0.002 0.954,0 1.717,0.094 2.461,0.258 0.011,0 0.009,-0.012 0.021,-0.012 0.787,0.057 1.447,-0.559 1.541,-1.334 l 0.062,-1.127 c -1.439,-0.357 -2.945,-0.539 -4.254,-0.539 -4.777,0.029 -8.322,2.434 -8.334,7.018 0.006,4.01 2.709,5.562 5.614,6.971 2.851,1.369 5.972,2.502 5.999,5.809 -0.018,3.453 -3.348,4.727 -5.644,4.73 -1.343,-0.004 -2.801,-0.34 -4.028,-0.727 -0.77,-0.127 -1.401,0.553 -1.5,1.451 l -0.104,1.004 c 1.688,0.547 3.419,1.021 5.159,1.021 0,0 0.002,0 0.005,0 0.005,0 0.009,0 0.017,0 5.35,-0.039 9.507,-2.172 9.523,-7.711 -0.008,-4.275 -2.728,-6.068 -5.621,-7.539 z"
       id="path4930"
       inkscape:connector-curvature="0" /><path
       d="m 95.08,182.961 c 0.002,0 0.002,-0.002 0.004,-0.002 0.742,0 1.359,-0.518 1.518,-1.215 v -10.732 c 0,-4.057 -1.717,-7.127 -6.471,-7.127 -1.68,0 -4.492,0.951 -5.771,3.619 -0.988,-2.523 -3.143,-3.619 -5.299,-3.619 -2.742,0 -4.605,0.986 -5.919,3.143 h -0.074 v -1.158 c -0.012,-0.854 -0.701,-1.543 -1.557,-1.543 -0.006,0 -0.01,-0.004 -0.016,-0.004 h -1.644 v 18.639 h 1.86 c 0.002,0 0.002,-0.002 0.004,-0.002 0.861,0 1.559,-0.697 1.559,-1.557 0,-0.023 0.008,-0.033 0.013,-0.049 v -7.783 c 0,-3.473 1.387,-6.908 4.895,-6.908 2.777,0 3.328,2.887 3.328,5.189 v 11.109 h 1.885 c 0.002,0 0.002,-0.002 0.006,-0.002 0.812,0 1.471,-0.623 1.543,-1.416 v -7.973 c 0,-3.473 1.389,-6.908 4.896,-6.908 2.777,0 3.326,2.887 3.326,5.189 v 11.109 h 1.914 z"
       id="path4932"
       inkscape:connector-curvature="0" /><path
       d="m 148.164,182.961 c 0.004,0 0.004,-0.002 0.006,-0.002 0.836,0 1.512,-0.66 1.551,-1.486 v -9.584 c 0,-5.006 -2.158,-8.004 -6.982,-8.004 -2.594,0 -5.076,1.279 -6.102,3.4 h -0.072 v -1.393 c 0,-0.002 -0.004,-0.002 -0.004,-0.006 0,-0.861 -0.697,-1.561 -1.557,-1.561 -0.008,0 -0.012,-0.004 -0.018,-0.004 h -1.75 v 18.639 h 1.889 c 0,0 0,-0.002 0.004,-0.002 0.816,0 1.48,-0.633 1.545,-1.434 v -7.189 c 0,-4.529 1.756,-7.674 5.664,-7.674 2.998,0.184 3.945,2.303 3.945,6.65 v 9.648 h 1.881 z"
       id="path4934"
       inkscape:connector-curvature="0" /><path
       d="m 166.656,164.322 c -0.006,0 -0.008,0.004 -0.018,0.004 -0.723,0 -1.426,0.498 -1.73,1.17 l -4.725,14.25 h -0.076 l -4.623,-14.242 c -0.303,-0.676 -1.008,-1.178 -1.736,-1.178 -0.006,0 -0.01,-0.004 -0.016,-0.004 h -2.395 l 6.322,17.396 c 0.219,0.621 0.66,1.572 0.66,1.973 0,0.365 -1.025,4.605 -4.096,4.605 -0.076,0 -0.152,-0.008 -0.229,-0.014 -0.781,-0.043 -1.373,0.504 -1.506,1.346 l -0.092,1.189 c 0.621,0.109 1.244,0.256 2.338,0.256 4.533,0 5.885,-4.131 7.164,-7.711 l 6.871,-19.041 h -2.113 z"
       id="path4936"
       inkscape:connector-curvature="0" /></g></svg>